<svg width="30" height="30" viewBox="0 0 30 30" fill="none" xmlns="http://www.w3.org/2000/svg">
<g clip-path="url(#clip0)">
<path d="M29.8146 17.3234C31.1105 9.15172 25.528 1.47804 17.3458 0.183773C9.16348 -1.1105 1.47986 4.46476 0.183919 12.6365C-1.11203 20.8081 4.47045 28.4818 12.6527 29.7761C20.835 31.0704 28.5186 25.4951 29.8146 17.3234Z" fill="url(#paint0_linear)"/>
<path d="M15.0001 28.9211C12.2393 28.9211 9.54058 28.1035 7.24511 26.5717C4.94964 25.0399 3.16053 22.8626 2.10404 20.3153C1.04755 17.7681 0.771126 14.9651 1.30972 12.2609C1.84831 9.5567 3.17774 7.07274 5.12988 5.12312C7.08202 3.17351 9.56919 1.84581 12.2769 1.30791C14.9846 0.770011 17.7912 1.04608 20.3418 2.1012C22.8924 3.15633 25.0724 4.94312 26.6062 7.23562C28.14 9.52812 28.9586 12.2234 28.9586 14.9805C28.9586 16.8112 28.5976 18.624 27.8961 20.3153C27.1946 22.0067 26.1664 23.5435 24.8703 24.838C23.5741 26.1325 22.0353 27.1593 20.3418 27.8599C18.6482 28.5605 16.8331 28.9211 15.0001 28.9211V28.9211Z" fill="url(#paint1_radial)"/>
<path d="M28.7766 17.2237C30.0171 9.62494 24.8547 2.46056 17.2461 1.22166C9.63746 -0.0172437 2.46382 5.13847 1.22331 12.7373C-0.017197 20.3361 5.14519 27.5004 12.7538 28.7393C20.3625 29.9782 27.5361 24.8225 28.7766 17.2237Z" fill="url(#paint2_radial)"/>
<path d="M28.7766 17.2237C30.0171 9.62494 24.8547 2.46056 17.2461 1.22166C9.63746 -0.0172437 2.46382 5.13847 1.22331 12.7373C-0.017197 20.3361 5.14519 27.5004 12.7538 28.7393C20.3625 29.9782 27.5361 24.8225 28.7766 17.2237Z" fill="url(#paint3_linear)"/>
<path d="M15 24.7766C11.6575 24.7762 8.42604 23.5783 5.8928 21.4005C3.35957 19.2227 1.69265 16.2096 1.19493 12.9087C1.09314 13.5946 1.04215 14.287 1.04236 14.9804C1.04548 16.8967 1.44416 18.7917 2.21351 20.5472C2.98286 22.3028 4.10635 23.881 5.51382 25.1834C6.9213 26.4859 8.58253 27.4845 10.3938 28.117C12.205 28.7495 14.1274 29.0022 16.0408 28.8595C17.9543 28.7167 19.8177 28.1815 21.5148 27.2872C23.2118 26.393 24.706 25.1589 25.9041 23.662C27.1021 22.1652 27.9783 20.4378 28.478 18.5876C28.9776 16.7374 29.0899 14.8042 28.8079 12.9087C28.3101 16.2101 26.6427 19.2236 24.1089 21.4014C21.5751 23.5793 18.3429 24.7769 15 24.7766V24.7766Z" fill="url(#paint4_linear)"/>
<path d="M7.57056 17.577L13.1293 23.1277L22.9013 13.3674V8.34961L12.683 18.5547L7.78188 13.6599L7.57056 17.577Z" fill="white"/>
<path d="M15 16.0055C9.84582 16.0055 5.66772 12.8654 5.66772 8.35008C5.66772 3.83479 9.84582 1.04102 15 1.04102C20.1541 1.04102 24.3322 3.83574 24.3322 8.35102C24.3322 12.8663 20.1541 16.0055 15 16.0055Z" fill="url(#paint5_linear)"/>
</g>
<defs>
<linearGradient id="paint0_linear" x1="14.9987" y1="-0.00136772" x2="14.9987" y2="29.9598" gradientUnits="userSpaceOnUse">
<stop stop-color="#0065B1"/>
<stop offset="1" stop-color="#0065B1"/>
</linearGradient>
<radialGradient id="paint1_radial" cx="0" cy="0" r="1" gradientUnits="userSpaceOnUse" gradientTransform="translate(15.3659 17.0456) scale(26.8615 26.8267)">
<stop stop-color="#CFD9E3"/>
<stop offset="0.26" stop-color="#4AAAE5" stop-opacity="0.3"/>
<stop offset="0.52" stop-color="#0065B1"/>
<stop offset="0.97" stop-color="#0065B1"/>
</radialGradient>
<radialGradient id="paint2_radial" cx="0" cy="0" r="1" gradientUnits="userSpaceOnUse" gradientTransform="translate(15.0002 14.9803) rotate(90) scale(13.9405 13.9586)">
<stop offset="0.91" stop-color="#2A9FD1" stop-opacity="0"/>
<stop offset="1" stop-color="#1092C9"/>
</radialGradient>
<linearGradient id="paint3_linear" x1="14.9999" y1="17.1086" x2="14.9999" y2="30.1926" gradientUnits="userSpaceOnUse">
<stop offset="0.48" stop-color="#06597D" stop-opacity="0"/>
<stop offset="0.99" stop-color="#06597D" stop-opacity="0.5"/>
</linearGradient>
<linearGradient id="paint4_linear" x1="4420.04" y1="2390.07" x2="4420.04" y2="5178.64" gradientUnits="userSpaceOnUse">
<stop offset="0.48" stop-color="#06597D" stop-opacity="0"/>
<stop offset="0.99" stop-color="#06597D" stop-opacity="0.5"/>
</linearGradient>
<linearGradient id="paint5_linear" x1="15" y1="-6.65985" x2="15" y2="11.6066" gradientUnits="userSpaceOnUse">
<stop stop-color="white"/>
<stop offset="0.22" stop-color="white"/>
<stop offset="1" stop-color="white" stop-opacity="0"/>
</linearGradient>
<clipPath id="clip0">
<rect width="30" height="30" fill="white"/>
</clipPath>
</defs>
</svg>
