<svg width="26" height="15" viewBox="0 0 26 15" fill="none" xmlns="http://www.w3.org/2000/svg">
<path d="M18.8006 9.04507L25.4261 14.0279C25.6005 13.7604 25.6932 13.4529 25.6938 13.1392V1.72497C25.694 1.33894 25.5554 0.964182 25.3005 0.661621L15.2174 10.1187C14.5906 10.7075 13.741 11.0382 12.8551 11.0382C11.9692 11.0382 11.1195 10.7075 10.4927 10.1187L0.382349 0.671897C0.134041 0.973223 -0.000485492 1.34374 3.02522e-06 1.72497V13.1392C-0.000629474 13.4649 0.0979304 13.784 0.284031 14.0587L6.88772 9.04507L7.63057 9.90294L1.22898 14.783C1.42292 14.8511 1.62827 14.8859 1.83527 14.8857H23.8421C24.0646 14.8837 24.2848 14.8437 24.4921 14.7676L18.0468 9.92862L18.8006 9.04507Z" fill="white"/>
<path d="M12.8362 9.93457C13.4121 9.93228 13.9637 9.71629 14.3711 9.33357L24.2629 0.0513711C24.1236 0.0184834 23.9806 0.0012374 23.8369 0H1.83559C1.68473 0.00155846 1.53453 0.0187888 1.3877 0.0513711L11.3069 9.33357C11.5067 9.52407 11.7448 9.67532 12.0074 9.7785C12.2699 9.88167 12.5517 9.93472 12.8362 9.93457Z" fill="white"/>
</svg>
