<svg width="24" height="24" viewBox="0 0 24 24" fill="none" xmlns="http://www.w3.org/2000/svg">
<path d="M12 1.98486C6.579 1.98486 2 6.52983 2 11.9084C2 17.2869 6.579 21.8319 12 21.8319C17.421 21.8319 22 17.2869 22 11.9084C22 6.52983 17.421 1.98486 12 1.98486ZM12 14.8854C12.992 14.8854 13.85 14.6224 14.293 14.1828L15.707 15.587C14.581 16.7034 12.901 16.8701 12 16.8701C9.243 16.8701 7 14.6443 7 11.9084C7 9.17246 9.243 6.94661 12 6.94661C12.901 6.94661 14.582 7.11333 15.707 8.22972L14.293 9.63291C13.851 9.1933 12.993 8.93131 12 8.93131C10.374 8.93131 9 10.2948 9 11.9084C9 13.5219 10.374 14.8854 12 14.8854Z" fill="white"/>
</svg>
