<svg width="20" height="30" viewBox="0 0 20 30" fill="none" xmlns="http://www.w3.org/2000/svg">
<path d="M15.5859 0H4.00466C2.94256 0 1.92396 0.402494 1.17294 1.11894C0.421919 1.83538 0 2.80708 0 3.82029V25.9512C0 26.9644 0.421919 27.9361 1.17294 28.6525C1.92396 29.369 2.94256 29.7715 4.00466 29.7715H15.5859C16.6486 29.7715 17.6678 29.3692 18.4198 28.6529C19.1718 27.9366 19.595 26.9649 19.5966 25.9512V3.82029C19.595 2.80655 19.1718 1.83486 18.4198 1.11858C17.6678 0.402306 16.6486 -1.17069e-06 15.5859 0V0ZM7.1255 1.94794H12.4529V3.33766H7.1255V1.94794ZM9.79528 28.94C9.42517 28.94 9.06338 28.8353 8.75565 28.6391C8.44792 28.443 8.20807 28.1642 8.06644 27.838C7.9248 27.5118 7.88775 27.1529 7.95995 26.8066C8.03215 26.4603 8.21038 26.1422 8.47208 25.8926C8.73379 25.6429 9.06721 25.4729 9.4302 25.404C9.7932 25.3351 10.1695 25.3705 10.5114 25.5056C10.8533 25.6407 11.1456 25.8695 11.3512 26.1631C11.5568 26.4566 11.6666 26.8018 11.6666 27.1549C11.665 27.6278 11.4673 28.081 11.1167 28.4154C10.7661 28.7499 10.2911 28.9384 9.79528 28.94ZM17.3414 24.6022H2.2431V4.94253H17.3353L17.3414 24.6022ZM9.79528 25.8582C9.52618 25.857 9.26278 25.9321 9.03845 26.0739C8.81412 26.2156 8.63895 26.4178 8.53514 26.6546C8.43132 26.8914 8.40353 27.1523 8.45529 27.4042C8.50705 27.6562 8.63602 27.8877 8.82588 28.0697C9.01573 28.2516 9.25791 28.3757 9.52175 28.4262C9.78559 28.4767 10.0592 28.4514 10.3079 28.3534C10.5567 28.2554 10.7693 28.0892 10.9189 27.8759C11.0686 27.6625 11.1484 27.4116 11.1485 27.1549C11.1485 26.812 11.0061 26.483 10.7525 26.24C10.4989 25.997 10.1547 25.8597 9.79528 25.8582V25.8582Z" fill="white"/>
</svg>
