<svg width="28" height="28" viewBox="0 0 28 28" fill="none" xmlns="http://www.w3.org/2000/svg">
<g clip-path="url(#clip0)">
<path d="M16.6797 13.8937C16.6797 15.3624 15.48 16.553 14 16.553C12.52 16.553 11.3203 15.3624 11.3203 13.8937C11.3203 12.425 12.52 11.2344 14 11.2344C15.48 11.2344 16.6797 12.425 16.6797 13.8937Z" fill="white"/>
<path d="M20.2667 9.18855C20.1379 8.84214 19.9324 8.52859 19.6654 8.27123C19.406 8.00623 19.0903 7.80228 18.741 7.67445C18.4578 7.56527 18.0322 7.43532 17.2484 7.39991C16.4006 7.36154 16.1464 7.35327 13.9999 7.35327C11.8532 7.35327 11.599 7.36133 10.7513 7.3997C9.96753 7.43532 9.54178 7.56527 9.25873 7.67445C8.90945 7.80228 8.59351 8.00623 8.33438 8.27123C8.06735 8.52859 7.86185 8.84193 7.73282 9.18855C7.6228 9.46966 7.49185 9.89217 7.45618 10.67C7.41751 11.5112 7.40918 11.7635 7.40918 13.8939C7.40918 16.024 7.41751 16.2763 7.45618 17.1177C7.49185 17.8955 7.6228 18.3178 7.73282 18.599C7.86185 18.9456 8.06714 19.2589 8.33417 19.5163C8.59351 19.7813 8.90924 19.9852 9.25851 20.1131C9.54178 20.2224 9.96753 20.3524 10.7513 20.3878C11.599 20.4262 11.853 20.4342 13.9997 20.4342C16.1466 20.4342 16.4008 20.4262 17.2482 20.3878C18.032 20.3524 18.4578 20.2224 18.741 20.1131C19.4421 19.8447 19.9963 19.2947 20.2667 18.599C20.3767 18.3178 20.5077 17.8955 20.5436 17.1177C20.5822 16.2763 20.5904 16.024 20.5904 13.8939C20.5904 11.7635 20.5822 11.5112 20.5436 10.67C20.5079 9.89217 20.377 9.46966 20.2667 9.18855V9.18855ZM13.9999 17.9903C11.7199 17.9903 9.87161 16.1563 9.87161 13.8936C9.87161 11.631 11.7199 9.79698 13.9999 9.79698C16.2797 9.79698 18.1279 11.631 18.1279 13.8936C18.1279 16.1563 16.2797 17.9903 13.9999 17.9903ZM18.2911 10.5924C17.7584 10.5924 17.3264 10.1637 17.3264 9.63501C17.3264 9.10629 17.7584 8.67763 18.2911 8.67763C18.8239 8.67763 19.2559 9.10629 19.2559 9.63501C19.2556 10.1637 18.8239 10.5924 18.2911 10.5924Z" fill="white"/>
<path d="M14 0C6.2692 0 0 6.22153 0 13.8936C0 21.5656 6.2692 27.7871 14 27.7871C21.7308 27.7871 28 21.5656 28 13.8936C28 6.22153 21.7308 0 14 0ZM21.9906 17.1827C21.9517 18.032 21.8156 18.6118 21.6169 19.1193C21.1993 20.191 20.3457 21.0381 19.2658 21.4526C18.7546 21.6497 18.1701 21.7846 17.3146 21.8234C16.4573 21.8622 16.1834 21.8715 14.0002 21.8715C11.8168 21.8715 11.5431 21.8622 10.6856 21.8234C9.83008 21.7846 9.24561 21.6497 8.73441 21.4526C8.19778 21.2522 7.71201 20.9383 7.31039 20.5323C6.90152 20.134 6.58514 19.6517 6.38327 19.1193C6.1846 18.612 6.04852 18.032 6.00964 17.1829C5.97012 16.332 5.96094 16.0602 5.96094 13.8936C5.96094 11.7269 5.97012 11.4551 6.00943 10.6044C6.04831 9.75513 6.18417 9.17531 6.38284 8.66778C6.58472 8.13545 6.90131 7.65316 7.31039 7.25481C7.71179 6.84883 8.19778 6.53486 8.73419 6.33452C9.24561 6.13737 9.82986 6.00253 10.6856 5.96374C11.5429 5.92494 11.8168 5.91562 14 5.91562C16.1832 5.91562 16.4571 5.92494 17.3144 5.96395C18.1701 6.00253 18.7544 6.13737 19.2658 6.33431C19.8022 6.53465 20.2882 6.84883 20.6898 7.25481C21.0987 7.65337 21.4153 8.13545 21.6169 8.66778C21.8158 9.17531 21.9517 9.75513 21.9908 10.6044C22.0299 11.4551 22.0391 11.7269 22.0391 13.8936C22.0391 16.0602 22.0299 16.332 21.9906 17.1827V17.1827Z" fill="white"/>
</g>
<defs>
<clipPath id="clip0">
<rect width="28" height="27.7871" fill="white"/>
</clipPath>
</defs>
</svg>
