<svg width="27" height="30" viewBox="0 0 27 30" fill="none" xmlns="http://www.w3.org/2000/svg">
<path d="M13.4188 0C9.29869 0 4.06445 3.02488 4.06445 9.96431C4.06445 16.9037 13.4188 25.4512 13.4188 25.4512C13.4188 25.4512 22.7732 17.0817 22.7732 9.96431C22.7732 2.84695 17.5389 0 13.4188 0ZM13.4188 13.0683C12.4828 13.0696 11.5674 12.8096 10.7885 12.3213C10.0096 11.833 9.4023 11.1384 9.04345 10.3253C8.6846 9.51218 8.59034 8.61722 8.77262 7.75371C8.95489 6.8902 9.4055 6.09697 10.0674 5.47446C10.7293 4.85195 11.5727 4.42816 12.4908 4.25673C13.4089 4.08529 14.3605 4.17394 15.225 4.51144C16.0896 4.84895 16.8282 5.42012 17.3473 6.15266C17.8665 6.8852 18.1429 7.74615 18.1415 8.62651C18.1415 9.80454 17.644 10.9343 16.7583 11.7673C15.8726 12.6003 14.6714 13.0683 13.4188 13.0683Z" fill="white"/>
<path d="M0 29.7715H26.8369L21.6447 22.2725H18.8419C17.2019 24.3269 15.4007 26.2631 13.4535 28.0648C11.5352 26.2547 9.75561 24.319 8.12814 22.2725H5.19921L0 29.7715Z" fill="white"/>
</svg>
