<?xml version="1.0" encoding="UTF-8"?>
<svg xmlns="http://www.w3.org/2000/svg" xmlns:xlink="http://www.w3.org/1999/xlink" width="247pt" height="60pt" viewBox="0 0 247 60" version="1.1">
<g id="surface1">
<path style=" stroke:none;fill-rule:nonzero;fill:rgb(0%,39.607843%,69.411765%);fill-opacity:1;" d="M 53.386719 18.546875 L 29.550781 42.207031 C 29.171875 42.570312 28.574219 42.570312 28.195312 42.207031 L 18.648438 32.636719 C 18.152344 32.167969 17.867188 31.511719 17.867188 30.828125 C 17.867188 30.144531 18.152344 29.492188 18.648438 29.019531 C 18.800781 28.800781 19.054688 28.667969 19.324219 28.667969 C 19.59375 28.667969 19.847656 28.800781 20 29.019531 L 28.949219 37.910156 L 51.503906 15.308594 C 43.59375 2.644531 27.09375 -1.460938 14.191406 6.023438 C 1.289062 13.503906 -3.378906 29.886719 3.636719 43.066406 C 10.652344 56.25 26.828125 61.488281 40.21875 54.921875 C 53.609375 48.351562 59.398438 32.335938 53.308594 18.699219 Z M 53.386719 18.546875 "/>
<path style="fill:none;stroke-width:0.5;stroke-linecap:butt;stroke-linejoin:miter;stroke:rgb(30.196078%,30.196078%,30.196078%);stroke-opacity:1;stroke-miterlimit:10;" d="M 9.36998 7.679759 L 9.36998 0.000241477 " transform="matrix(7.519026,0,0,7.534247,0,1.068493)"/>
<path style=" stroke:none;fill-rule:nonzero;fill:rgb(30.196078%,30.196078%,30.196078%);fill-opacity:1;" d="M 105.71875 14.253906 L 121.582031 48.835938 L 112.785156 48.835938 L 108.5 39.570312 L 95.71875 39.570312 L 91.207031 48.835938 L 85.566406 48.835938 L 102.109375 14.253906 Z M 97.222656 36.855469 L 107.445312 36.855469 L 102.410156 25.855469 Z M 97.222656 36.855469 "/>
<path style=" stroke:none;fill-rule:nonzero;fill:rgb(30.196078%,30.196078%,30.196078%);fill-opacity:1;" d="M 143.6875 28.644531 L 142.863281 27.816406 L 141.960938 27.289062 L 140.078125 27.289062 C 139.558594 27.171875 139.019531 27.171875 138.5 27.289062 C 137.953125 27.429688 137.441406 27.6875 136.996094 28.042969 C 136.542969 28.328125 136.140625 28.683594 135.792969 29.097656 C 135.476562 29.492188 135.199219 29.921875 134.964844 30.375 L 134.964844 48.835938 L 127.449219 48.835938 L 127.449219 25.554688 L 132.859375 22.691406 L 135.191406 25.179688 C 136.027344 24.328125 136.992188 23.613281 138.050781 23.070312 C 139.085938 22.574219 140.210938 22.292969 141.359375 22.238281 C 142.402344 22.277344 143.425781 22.535156 144.367188 22.992188 C 145.203125 23.398438 145.984375 23.902344 146.695312 24.5 Z M 143.6875 28.644531 "/>
<path style=" stroke:none;fill-rule:nonzero;fill:rgb(30.196078%,30.196078%,30.196078%);fill-opacity:1;" d="M 152.863281 48.835938 L 147.371094 48.835938 L 168.800781 23.21875 L 174.292969 23.21875 Z M 147.449219 23.21875 L 156.09375 23.21875 L 174.214844 48.835938 L 165.417969 48.835938 Z M 147.449219 23.21875 "/>
<path style=" stroke:none;fill-rule:nonzero;fill:rgb(30.196078%,30.196078%,30.196078%);fill-opacity:1;" d="M 179.554688 14.328125 C 179.441406 13.832031 179.441406 13.316406 179.554688 12.820312 C 179.765625 12.359375 180.074219 11.949219 180.457031 11.617188 L 181.734375 10.789062 C 182.777344 10.386719 183.925781 10.386719 184.96875 10.789062 C 185.449219 11.007812 185.90625 11.285156 186.320312 11.617188 C 187.089844 12.304688 187.527344 13.292969 187.523438 14.328125 C 187.59375 14.804688 187.59375 15.285156 187.523438 15.761719 C 187.292969 16.210938 186.988281 16.617188 186.621094 16.964844 C 186.203125 17.273438 185.75 17.527344 185.269531 17.71875 C 184.746094 17.828125 184.210938 17.828125 183.691406 17.71875 C 183.144531 17.832031 182.582031 17.832031 182.035156 17.71875 C 181.570312 17.542969 181.136719 17.285156 180.757812 16.964844 C 180.421875 16.730469 180.117188 16.453125 179.855469 16.136719 C 179.582031 15.574219 179.480469 14.949219 179.554688 14.328125 Z M 179.554688 25.480469 L 184.96875 22.691406 L 187.976562 22.691406 L 187.976562 48.835938 L 180.457031 48.835938 Z M 179.554688 25.480469 "/>
<path style=" stroke:none;fill-rule:nonzero;fill:rgb(30.196078%,30.196078%,30.196078%);fill-opacity:1;" d="M 204.066406 23.21875 L 204.066406 41.300781 C 204.09375 42.78125 205.015625 44.09375 206.398438 44.617188 C 206.867188 44.722656 207.355469 44.722656 207.824219 44.617188 C 208.148438 44.691406 208.480469 44.691406 208.804688 44.617188 L 209.929688 43.9375 L 210.984375 42.957031 C 211.375 42.585938 211.703125 42.152344 211.960938 41.679688 L 211.960938 23.21875 L 219.480469 23.21875 L 219.480469 48.835938 L 211.960938 48.835938 L 211.960938 46.273438 C 211.015625 47.105469 209.953125 47.792969 208.804688 48.308594 C 207.742188 48.8125 206.59375 49.09375 205.417969 49.136719 C 204.210938 49.136719 203.011719 48.90625 201.886719 48.457031 C 200.828125 48.074219 199.859375 47.484375 199.027344 46.726562 C 198.214844 46.027344 197.574219 45.148438 197.148438 44.164062 C 196.683594 43.199219 196.425781 42.148438 196.398438 41.074219 L 196.398438 23.21875 Z M 204.066406 23.21875 "/>
<path style=" stroke:none;fill-rule:nonzero;fill:rgb(30.196078%,30.196078%,30.196078%);fill-opacity:1;" d="M 230.984375 41.679688 C 231.367188 42.898438 232.039062 44.011719 232.9375 44.917969 C 233.773438 45.769531 234.90625 46.257812 236.097656 46.273438 L 237.601562 46.273438 C 238.007812 46.132812 238.386719 45.929688 238.730469 45.671875 C 239.035156 45.453125 239.292969 45.167969 239.480469 44.84375 C 239.554688 44.496094 239.554688 44.136719 239.480469 43.789062 C 239.464844 43.242188 239.335938 42.703125 239.105469 42.207031 C 238.875 41.734375 238.570312 41.300781 238.203125 40.925781 C 237.757812 40.53125 237.28125 40.179688 236.773438 39.871094 C 236.308594 39.445312 235.804688 39.070312 235.269531 38.738281 L 232.261719 37.234375 C 231.289062 36.773438 230.382812 36.191406 229.554688 35.5 C 228.804688 34.839844 228.148438 34.078125 227.601562 33.238281 C 227.089844 32.320312 226.828125 31.28125 226.847656 30.226562 C 226.847656 29.207031 227.082031 28.203125 227.527344 27.289062 C 227.980469 26.40625 228.621094 25.636719 229.40625 25.027344 C 230.292969 24.402344 231.285156 23.941406 232.339844 23.671875 C 233.558594 23.308594 234.824219 23.128906 236.097656 23.144531 C 237.195312 22.992188 238.308594 22.992188 239.40625 23.144531 C 240.3125 23.3125 241.175781 23.644531 241.960938 24.125 C 242.691406 24.546875 243.351562 25.082031 243.917969 25.707031 C 244.484375 26.359375 244.988281 27.066406 245.421875 27.816406 L 240.910156 29.472656 C 240.746094 28.777344 240.464844 28.117188 240.082031 27.515625 C 239.808594 27.113281 239.449219 26.78125 239.03125 26.535156 C 238.714844 26.308594 238.355469 26.152344 237.976562 26.082031 L 237.074219 26.082031 C 236.601562 26.003906 236.121094 26.003906 235.644531 26.082031 C 235.300781 26.007812 234.941406 26.007812 234.59375 26.082031 C 234.285156 26.292969 234.003906 26.546875 233.765625 26.835938 C 233.703125 27.160156 233.703125 27.492188 233.765625 27.816406 C 233.773438 28.316406 233.902344 28.808594 234.140625 29.246094 C 234.453125 29.683594 234.804688 30.085938 235.195312 30.453125 C 235.71875 30.847656 236.269531 31.199219 236.847656 31.507812 C 237.464844 31.882812 238.121094 32.1875 238.804688 32.410156 L 241.960938 33.917969 C 242.90625 34.414062 243.789062 35.019531 244.59375 35.726562 C 245.363281 36.371094 246.023438 37.132812 246.550781 37.984375 C 247.023438 38.867188 247.28125 39.847656 247.300781 40.847656 C 247.289062 41.90625 247.085938 42.953125 246.699219 43.9375 C 246.328125 44.914062 245.738281 45.792969 244.96875 46.5 C 244.019531 47.273438 242.917969 47.835938 241.738281 48.15625 C 240.171875 48.609375 238.550781 48.835938 236.925781 48.835938 C 235.546875 48.859375 234.175781 48.652344 232.863281 48.234375 C 231.886719 47.929688 230.949219 47.5 230.082031 46.953125 C 229.363281 46.394531 228.730469 45.734375 228.203125 44.992188 C 227.675781 44.316406 227.300781 43.5625 226.847656 42.882812 Z M 230.984375 41.679688 "/>
</g>
</svg>
