<?xml version="1.0" encoding="UTF-8"?>
<svg xmlns="http://www.w3.org/2000/svg" xmlns:xlink="http://www.w3.org/1999/xlink" width="216pt" height="53pt" viewBox="0 0 216 53" version="1.1">
<g id="surface1">
<path style=" stroke:none;fill-rule:nonzero;fill:rgb(0%,39.607843%,69.411765%);fill-opacity:1;" d="M 46.566406 16.261719 L 25.773438 37.007812 C 25.445312 37.328125 24.921875 37.328125 24.589844 37.007812 L 16.265625 28.617188 C 15.832031 28.207031 15.585938 27.628906 15.585938 27.03125 C 15.585938 26.429688 15.832031 25.859375 16.265625 25.445312 C 16.398438 25.253906 16.621094 25.136719 16.855469 25.136719 C 17.089844 25.136719 17.3125 25.253906 17.445312 25.445312 L 25.25 33.238281 L 44.921875 13.421875 C 38.023438 2.316406 23.632812 -1.28125 12.378906 5.28125 C 1.121094 11.839844 -2.949219 26.207031 3.171875 37.761719 C 9.292969 49.320312 23.402344 53.914062 35.078125 48.15625 C 46.757812 42.394531 51.808594 28.351562 46.496094 16.394531 Z M 46.566406 16.261719 "/>
<path style="fill:none;stroke-width:0.5;stroke-linecap:butt;stroke-linejoin:miter;stroke:rgb(30.196078%,30.196078%,30.196078%);stroke-opacity:1;stroke-miterlimit:10;" d="M 9.369822 7.679769 L 9.369822 0.000682747 " transform="matrix(6.558206,0,0,6.606316,0,0.936896)"/>
<path style=" stroke:none;fill-rule:nonzero;fill:rgb(30.196078%,30.196078%,30.196078%);fill-opacity:1;" d="M 92.210938 12.496094 L 106.046875 42.820312 L 98.375 42.820312 L 94.632812 34.695312 L 83.488281 34.695312 L 79.554688 42.820312 L 74.632812 42.820312 L 89.058594 12.496094 Z M 84.800781 32.316406 L 93.714844 32.316406 L 89.320312 22.671875 Z M 84.800781 32.316406 "/>
<path style=" stroke:none;fill-rule:nonzero;fill:rgb(30.196078%,30.196078%,30.196078%);fill-opacity:1;" d="M 125.324219 25.117188 L 124.609375 24.390625 L 123.820312 23.925781 L 122.175781 23.925781 C 121.726562 23.824219 121.253906 23.824219 120.804688 23.925781 C 120.324219 24.050781 119.878906 24.277344 119.492188 24.589844 C 119.097656 24.839844 118.742188 25.152344 118.441406 25.511719 C 118.164062 25.859375 117.925781 26.238281 117.71875 26.632812 L 117.71875 42.820312 L 111.164062 42.820312 L 111.164062 22.40625 L 115.882812 19.894531 L 117.917969 22.078125 C 118.644531 21.332031 119.488281 20.703125 120.410156 20.226562 C 121.3125 19.792969 122.292969 19.546875 123.296875 19.5 C 124.207031 19.535156 125.097656 19.757812 125.917969 20.160156 C 126.648438 20.515625 127.328125 20.957031 127.949219 21.484375 Z M 125.324219 25.117188 "/>
<path style=" stroke:none;fill-rule:nonzero;fill:rgb(30.196078%,30.196078%,30.196078%);fill-opacity:1;" d="M 133.332031 42.820312 L 128.539062 42.820312 L 147.230469 20.359375 L 152.019531 20.359375 Z M 128.605469 20.359375 L 136.144531 20.359375 L 151.953125 42.820312 L 144.28125 42.820312 Z M 128.605469 20.359375 "/>
<path style=" stroke:none;fill-rule:nonzero;fill:rgb(30.196078%,30.196078%,30.196078%);fill-opacity:1;" d="M 156.609375 12.5625 C 156.511719 12.128906 156.511719 11.675781 156.609375 11.242188 C 156.796875 10.839844 157.066406 10.476562 157.398438 10.1875 L 158.511719 9.460938 C 159.421875 9.105469 160.421875 9.105469 161.332031 9.460938 C 161.75 9.652344 162.148438 9.894531 162.511719 10.1875 C 163.183594 10.789062 163.5625 11.65625 163.558594 12.5625 C 163.621094 12.980469 163.621094 13.402344 163.558594 13.824219 C 163.359375 14.214844 163.09375 14.570312 162.773438 14.875 C 162.410156 15.148438 162.011719 15.367188 161.59375 15.535156 C 161.140625 15.632812 160.671875 15.632812 160.21875 15.535156 C 159.738281 15.632812 159.25 15.632812 158.773438 15.535156 C 158.371094 15.382812 157.992188 15.15625 157.660156 14.875 C 157.367188 14.671875 157.097656 14.425781 156.871094 14.148438 C 156.632812 13.65625 156.546875 13.105469 156.609375 12.5625 Z M 156.609375 22.34375 L 161.332031 19.894531 L 163.953125 19.894531 L 163.953125 42.820312 L 157.398438 42.820312 Z M 156.609375 22.34375 "/>
<path style=" stroke:none;fill-rule:nonzero;fill:rgb(30.196078%,30.196078%,30.196078%);fill-opacity:1;" d="M 177.988281 20.359375 L 177.988281 36.214844 C 178.015625 37.511719 178.820312 38.664062 180.023438 39.121094 C 180.429688 39.214844 180.859375 39.214844 181.265625 39.121094 C 181.550781 39.1875 181.839844 39.1875 182.125 39.121094 L 183.101562 38.523438 L 184.023438 37.664062 C 184.367188 37.339844 184.648438 36.960938 184.875 36.546875 L 184.875 20.359375 L 191.433594 20.359375 L 191.433594 42.820312 L 184.875 42.820312 L 184.875 40.574219 C 184.050781 41.304688 183.125 41.910156 182.125 42.359375 C 181.199219 42.800781 180.195312 43.046875 179.167969 43.085938 C 178.117188 43.085938 177.070312 42.882812 176.085938 42.488281 C 175.164062 42.152344 174.320312 41.632812 173.59375 40.972656 C 172.886719 40.359375 172.328125 39.585938 171.957031 38.722656 C 171.550781 37.878906 171.324219 36.957031 171.304688 36.015625 L 171.304688 20.359375 Z M 177.988281 20.359375 "/>
<path style=" stroke:none;fill-rule:nonzero;fill:rgb(30.196078%,30.196078%,30.196078%);fill-opacity:1;" d="M 201.46875 36.546875 C 201.800781 37.617188 202.386719 38.589844 203.171875 39.386719 C 203.898438 40.132812 204.890625 40.5625 205.929688 40.574219 L 207.238281 40.574219 C 207.59375 40.449219 207.925781 40.273438 208.226562 40.046875 C 208.492188 39.851562 208.714844 39.605469 208.878906 39.320312 C 208.941406 39.015625 208.941406 38.699219 208.878906 38.394531 C 208.867188 37.917969 208.753906 37.445312 208.550781 37.007812 C 208.351562 36.597656 208.085938 36.214844 207.765625 35.882812 C 207.375 35.539062 206.960938 35.230469 206.519531 34.960938 C 206.113281 34.585938 205.671875 34.257812 205.203125 33.964844 L 202.582031 32.648438 C 201.734375 32.246094 200.945312 31.730469 200.21875 31.128906 C 199.566406 30.546875 198.996094 29.882812 198.515625 29.144531 C 198.074219 28.339844 197.839844 27.429688 197.859375 26.503906 C 197.859375 25.609375 198.066406 24.730469 198.453125 23.925781 C 198.847656 23.152344 199.40625 22.480469 200.089844 21.945312 C 200.863281 21.394531 201.730469 20.992188 202.652344 20.757812 C 203.714844 20.4375 204.816406 20.28125 205.929688 20.292969 C 206.886719 20.160156 207.855469 20.160156 208.8125 20.292969 C 209.605469 20.441406 210.355469 20.734375 211.042969 21.152344 C 211.675781 21.523438 212.253906 21.992188 212.746094 22.542969 C 213.246094 23.113281 213.683594 23.734375 214.058594 24.390625 L 210.125 25.839844 C 209.980469 25.230469 209.738281 24.652344 209.40625 24.128906 C 209.164062 23.773438 208.851562 23.480469 208.488281 23.269531 C 208.210938 23.070312 207.898438 22.933594 207.570312 22.867188 L 206.78125 22.867188 C 206.367188 22.800781 205.949219 22.800781 205.53125 22.867188 C 205.230469 22.804688 204.921875 22.804688 204.617188 22.867188 C 204.347656 23.054688 204.101562 23.277344 203.890625 23.53125 C 203.839844 23.816406 203.839844 24.105469 203.890625 24.390625 C 203.898438 24.828125 204.015625 25.261719 204.222656 25.644531 C 204.492188 26.027344 204.800781 26.382812 205.140625 26.699219 C 205.597656 27.046875 206.078125 27.355469 206.582031 27.625 C 207.121094 27.957031 207.695312 28.222656 208.289062 28.417969 L 211.042969 29.742188 C 211.867188 30.175781 212.636719 30.703125 213.339844 31.324219 C 214.011719 31.890625 214.585938 32.558594 215.046875 33.308594 C 215.457031 34.082031 215.683594 34.941406 215.699219 35.816406 C 215.6875 36.746094 215.511719 37.660156 215.175781 38.523438 C 214.851562 39.382812 214.335938 40.152344 213.664062 40.773438 C 212.839844 41.453125 211.878906 41.941406 210.847656 42.222656 C 209.480469 42.625 208.070312 42.820312 206.652344 42.820312 C 205.449219 42.839844 204.253906 42.664062 203.105469 42.292969 C 202.253906 42.027344 201.4375 41.648438 200.683594 41.171875 C 200.054688 40.679688 199.503906 40.101562 199.042969 39.449219 C 198.582031 38.855469 198.253906 38.199219 197.859375 37.601562 Z M 201.46875 36.546875 "/>
</g>
</svg>
