<?xml version="1.0" encoding="UTF-8"?>
<svg xmlns="http://www.w3.org/2000/svg" xmlns:xlink="http://www.w3.org/1999/xlink" width="220pt" height="54pt" viewBox="0 0 220 54" version="1.1">
<g id="surface1">
<path style=" stroke:none;fill-rule:nonzero;fill:rgb(0%,39.607843%,69.411765%);fill-opacity:1;" d="M 47.429688 16.632812 L 26.25 37.847656 C 25.917969 38.175781 25.382812 38.175781 25.046875 37.847656 L 16.566406 29.269531 C 16.125 28.847656 15.875 28.257812 15.875 27.644531 C 15.875 27.03125 16.125 26.445312 16.566406 26.023438 C 16.703125 25.828125 16.929688 25.707031 17.167969 25.707031 C 17.40625 25.707031 17.632812 25.828125 17.769531 26.023438 L 25.71875 33.992188 L 45.753906 13.726562 C 38.726562 2.367188 24.070312 -1.308594 12.609375 5.402344 C 1.140625 12.109375 -3.003906 26.800781 3.230469 38.621094 C 9.464844 50.441406 23.835938 55.140625 35.726562 49.25 C 47.625 43.359375 52.769531 28.996094 47.355469 16.765625 Z M 47.429688 16.632812 "/>
<path style="fill:none;stroke-width:0.5;stroke-linecap:butt;stroke-linejoin:miter;stroke:rgb(30.196078%,30.196078%,30.196078%);stroke-opacity:1;stroke-miterlimit:10;" d="M 9.369637 7.679979 L 9.369637 0.000406782 " transform="matrix(6.679654,0,0,6.75646,0,0.958189)"/>
<path style=" stroke:none;fill-rule:nonzero;fill:rgb(30.196078%,30.196078%,30.196078%);fill-opacity:1;" d="M 93.917969 12.78125 L 108.011719 43.792969 L 100.195312 43.792969 L 96.386719 35.484375 L 85.035156 35.484375 L 81.027344 43.792969 L 76.015625 43.792969 L 90.707031 12.78125 Z M 86.371094 33.050781 L 95.449219 33.050781 L 90.972656 23.1875 Z M 86.371094 33.050781 "/>
<path style=" stroke:none;fill-rule:nonzero;fill:rgb(30.196078%,30.196078%,30.196078%);fill-opacity:1;" d="M 127.644531 25.6875 L 126.917969 24.945312 L 126.113281 24.46875 L 124.4375 24.46875 C 123.980469 24.367188 123.5 24.367188 123.042969 24.46875 C 122.550781 24.597656 122.097656 24.828125 121.703125 25.148438 C 121.304688 25.40625 120.941406 25.722656 120.632812 26.089844 C 120.351562 26.445312 120.109375 26.835938 119.898438 27.238281 L 119.898438 43.792969 L 113.222656 43.792969 L 113.222656 22.914062 L 118.027344 20.347656 L 120.101562 22.578125 C 120.839844 21.816406 121.699219 21.171875 122.640625 20.6875 C 123.558594 20.242188 124.558594 19.992188 125.582031 19.941406 C 126.507812 19.980469 127.414062 20.207031 128.25 20.617188 C 128.992188 20.980469 129.6875 21.433594 130.320312 21.972656 Z M 127.644531 25.6875 "/>
<path style=" stroke:none;fill-rule:nonzero;fill:rgb(30.196078%,30.196078%,30.196078%);fill-opacity:1;" d="M 135.800781 43.792969 L 130.917969 43.792969 L 149.957031 20.820312 L 154.835938 20.820312 Z M 130.988281 20.820312 L 138.664062 20.820312 L 154.765625 43.792969 L 146.953125 43.792969 Z M 130.988281 20.820312 "/>
<path style=" stroke:none;fill-rule:nonzero;fill:rgb(30.196078%,30.196078%,30.196078%);fill-opacity:1;" d="M 159.507812 12.847656 C 159.410156 12.40625 159.410156 11.941406 159.507812 11.496094 C 159.699219 11.085938 159.976562 10.714844 160.3125 10.417969 L 161.445312 9.675781 C 162.375 9.3125 163.394531 9.3125 164.320312 9.675781 C 164.746094 9.871094 165.152344 10.121094 165.519531 10.417969 C 166.207031 11.035156 166.589844 11.921875 166.585938 12.847656 C 166.652344 13.277344 166.652344 13.707031 166.585938 14.136719 C 166.382812 14.539062 166.113281 14.902344 165.789062 15.214844 C 165.417969 15.492188 165.011719 15.714844 164.585938 15.886719 C 164.125 15.988281 163.648438 15.988281 163.1875 15.886719 C 162.695312 15.988281 162.199219 15.988281 161.714844 15.886719 C 161.304688 15.730469 160.917969 15.5 160.578125 15.214844 C 160.28125 15.003906 160.007812 14.753906 159.777344 14.46875 C 159.535156 13.964844 159.445312 13.402344 159.507812 12.847656 Z M 159.507812 22.851562 L 164.320312 20.347656 L 166.988281 20.347656 L 166.988281 43.792969 L 160.3125 43.792969 Z M 159.507812 22.851562 "/>
<path style=" stroke:none;fill-rule:nonzero;fill:rgb(30.196078%,30.196078%,30.196078%);fill-opacity:1;" d="M 181.285156 20.820312 L 181.285156 37.039062 C 181.3125 38.363281 182.132812 39.542969 183.355469 40.011719 C 183.769531 40.105469 184.207031 40.105469 184.621094 40.011719 C 184.914062 40.078125 185.207031 40.078125 185.496094 40.011719 L 186.492188 39.398438 L 187.429688 38.519531 C 187.78125 38.1875 188.066406 37.800781 188.296875 37.378906 L 188.296875 20.820312 L 194.980469 20.820312 L 194.980469 43.792969 L 188.296875 43.792969 L 188.296875 41.496094 C 187.460938 42.242188 186.515625 42.863281 185.496094 43.320312 C 184.554688 43.773438 183.53125 44.023438 182.484375 44.066406 C 181.414062 44.066406 180.347656 43.855469 179.347656 43.453125 C 178.40625 43.109375 177.546875 42.578125 176.808594 41.902344 C 176.089844 41.277344 175.519531 40.484375 175.140625 39.601562 C 174.726562 38.738281 174.496094 37.796875 174.476562 36.835938 L 174.476562 20.820312 Z M 181.285156 20.820312 "/>
<path style=" stroke:none;fill-rule:nonzero;fill:rgb(30.196078%,30.196078%,30.196078%);fill-opacity:1;" d="M 205.199219 37.378906 C 205.539062 38.472656 206.132812 39.46875 206.933594 40.28125 C 207.675781 41.042969 208.683594 41.484375 209.742188 41.496094 L 211.074219 41.496094 C 211.4375 41.367188 211.777344 41.1875 212.082031 40.957031 C 212.351562 40.757812 212.578125 40.503906 212.746094 40.214844 C 212.8125 39.902344 212.8125 39.578125 212.746094 39.265625 C 212.734375 38.78125 212.621094 38.296875 212.414062 37.847656 C 212.210938 37.429688 211.9375 37.039062 211.613281 36.699219 C 211.214844 36.347656 210.792969 36.03125 210.34375 35.753906 C 209.929688 35.371094 209.480469 35.035156 209.003906 34.738281 L 206.332031 33.390625 C 205.46875 32.980469 204.667969 32.453125 203.925781 31.835938 C 203.261719 31.242188 202.679688 30.5625 202.191406 29.808594 C 201.742188 28.984375 201.503906 28.054688 201.523438 27.105469 C 201.523438 26.191406 201.734375 25.292969 202.128906 24.46875 C 202.53125 23.679688 203.097656 22.992188 203.796875 22.445312 C 204.582031 21.878906 205.464844 21.46875 206.40625 21.230469 C 207.488281 20.902344 208.609375 20.742188 209.742188 20.753906 C 210.71875 20.617188 211.703125 20.617188 212.679688 20.753906 C 213.488281 20.90625 214.25 21.207031 214.953125 21.632812 C 215.59375 22.011719 216.183594 22.492188 216.6875 23.054688 C 217.195312 23.636719 217.640625 24.273438 218.023438 24.945312 L 214.015625 26.425781 C 213.867188 25.804688 213.621094 25.210938 213.285156 24.675781 C 213.039062 24.3125 212.71875 24.015625 212.347656 23.796875 C 212.066406 23.59375 211.75 23.453125 211.414062 23.386719 L 210.609375 23.386719 C 210.1875 23.320312 209.761719 23.320312 209.335938 23.386719 C 209.03125 23.324219 208.714844 23.324219 208.40625 23.386719 C 208.132812 23.578125 207.882812 23.804688 207.667969 24.066406 C 207.613281 24.359375 207.613281 24.652344 207.667969 24.945312 C 207.675781 25.390625 207.792969 25.835938 208.003906 26.226562 C 208.277344 26.617188 208.59375 26.980469 208.941406 27.304688 C 209.40625 27.660156 209.894531 27.976562 210.40625 28.253906 C 210.957031 28.59375 211.542969 28.863281 212.144531 29.0625 L 214.953125 30.417969 C 215.789062 30.863281 216.574219 31.402344 217.289062 32.035156 C 217.976562 32.617188 218.558594 33.296875 219.027344 34.066406 C 219.445312 34.855469 219.679688 35.734375 219.695312 36.628906 C 219.683594 37.582031 219.503906 38.515625 219.160156 39.398438 C 218.832031 40.277344 218.304688 41.066406 217.621094 41.699219 C 216.78125 42.394531 215.800781 42.894531 214.753906 43.183594 C 213.359375 43.59375 211.921875 43.792969 210.480469 43.792969 C 209.253906 43.8125 208.035156 43.632812 206.867188 43.253906 C 206 42.984375 205.167969 42.59375 204.398438 42.109375 C 203.757812 41.605469 203.199219 41.011719 202.730469 40.347656 C 202.257812 39.738281 201.925781 39.066406 201.523438 38.457031 Z M 205.199219 37.378906 "/>
</g>
</svg>
