<svg width="215" height="51" viewBox="0 0 215 51" fill="none" xmlns="http://www.w3.org/2000/svg">
<path d="M46.5899 14.6845L26.569 34.5594C26.4102 34.6966 26.2074 34.7721 25.9975 34.7721C25.7877 34.7721 25.5849 34.6966 25.4261 34.5594L17.3585 26.4911C17.1573 26.2912 16.9976 26.0534 16.8886 25.7914C16.7796 25.5295 16.7235 25.2486 16.7235 24.9649C16.7235 24.6812 16.7796 24.4003 16.8886 24.1383C16.9976 23.8764 17.1573 23.6386 17.3585 23.4386C17.5168 23.2842 17.7291 23.1978 17.9502 23.1978C18.1712 23.1978 18.3836 23.2842 18.5418 23.4386L26.0311 30.9287L45.0974 11.8338C41.9161 6.65638 36.8484 2.9171 30.9633 1.40462C25.0782 -0.10786 18.8358 0.724694 13.5527 3.72668C8.26956 6.72867 4.35879 11.6654 2.64523 17.4956C0.931664 23.3258 1.54926 29.5937 4.36776 34.9773C7.18626 40.3609 11.9853 44.4393 17.7527 46.3522C23.5201 48.2651 29.8049 47.8631 35.2817 45.2309C40.7584 42.5987 44.9988 37.9421 47.1085 32.2433C49.2182 26.5444 49.0323 20.2489 46.5899 14.6845V14.6845Z" fill="url(#paint0_linear)"/>
<path d="M60.9772 48.5711V0" stroke="#4D4D4D" stroke-miterlimit="10"/>
<path d="M90.585 11.04L103.95 40.1262H96.8104L93.2338 32.3403H82.1678L78.4299 40.1262H73.6835L87.5596 11.04H90.585ZM83.4855 29.7047H92.064L87.842 20.4934L83.4855 29.7047Z" fill="#4D4D4D"/>
<path d="M122.519 23.1289C122.223 22.8734 121.954 22.6583 121.712 22.47C121.483 22.3028 121.24 22.1544 120.986 22.0263C120.749 21.9195 120.501 21.8384 120.247 21.7842C119.957 21.7397 119.665 21.7172 119.373 21.717C118.916 21.7148 118.461 21.7874 118.028 21.9321C117.597 22.0783 117.189 22.2867 116.818 22.5507C116.438 22.8032 116.094 23.1063 115.796 23.4517C115.505 23.7788 115.268 24.1512 115.097 24.5543V40.1261H108.589V20.5605L113.147 18.1669L115.11 20.2647C115.801 19.5434 116.605 18.9394 117.49 18.4762C118.347 18.0352 119.296 17.8047 120.26 17.8039C121.14 17.7973 122.01 17.9952 122.801 18.3821C123.502 18.732 124.161 19.1606 124.764 19.6596L122.519 23.1289Z" fill="#4D4D4D"/>
<path d="M130.291 40.1258H125.652L143.642 18.6104H148.281L130.291 40.1258ZM125.692 18.6104H132.98L148.254 40.1258H140.953L125.692 18.6104Z" fill="#4D4D4D"/>
<path d="M152.692 11.1077C152.693 10.6809 152.784 10.2592 152.961 9.87054C153.132 9.47813 153.395 9.13236 153.727 8.862C154.05 8.57186 154.424 8.34391 154.83 8.18965C155.257 8.01806 155.714 7.93128 156.174 7.93415C156.635 7.93263 157.091 8.01936 157.519 8.18965C157.93 8.34067 158.309 8.56888 158.635 8.862C158.956 9.14129 159.214 9.48633 159.39 9.87377C159.566 10.2612 159.657 10.682 159.657 11.1077C159.657 11.5303 159.565 11.9479 159.388 12.3314C159.207 12.7108 158.951 13.0494 158.635 13.3265C158.309 13.6196 157.93 13.8478 157.519 13.9988C157.091 14.1691 156.635 14.2558 156.174 14.2543C155.714 14.2572 155.257 14.1704 154.83 13.9988C154.424 13.8446 154.05 13.6166 153.727 13.3265C153.399 13.0575 153.137 12.7171 152.961 12.3314C152.783 11.9479 152.691 11.5303 152.692 11.1077V11.1077ZM152.961 20.5207L157.546 18.1271H159.495V40.1266H152.961V20.5207Z" fill="#4D4D4D"/>
<path d="M173.358 18.6104V33.7787C173.361 34.1824 173.446 34.5811 173.608 34.9509C173.77 35.3208 174.005 35.6539 174.299 35.9303C174.59 36.2031 174.926 36.4218 175.294 36.5757C175.684 36.7287 176.099 36.8063 176.518 36.8043C176.797 36.792 177.072 36.7234 177.324 36.6026C177.653 36.4483 177.964 36.259 178.252 36.0378C178.584 35.7865 178.895 35.5076 179.18 35.2041C179.487 34.8818 179.761 34.5305 180 34.1552V18.6104H186.508V40.1258H180V38.1221C179.185 38.8216 178.281 39.4095 177.311 39.8703C176.427 40.2848 175.464 40.5049 174.487 40.5157C173.467 40.5268 172.454 40.3443 171.502 39.9779C170.619 39.6498 169.803 39.1621 169.095 38.539C168.428 37.932 167.885 37.2013 167.495 36.3875C167.105 35.5732 166.903 34.6817 166.904 33.7787V18.6104H173.358Z" fill="#4D4D4D"/>
<path d="M195.987 34.1159C196.297 35.1342 196.856 36.0588 197.614 36.8054C198.352 37.4641 199.316 37.8111 200.304 37.7736C200.717 37.7783 201.129 37.724 201.527 37.6122C201.874 37.5104 202.201 37.3513 202.495 37.1416C202.757 36.9552 202.974 36.7115 203.127 36.4289C203.273 36.1659 203.348 35.8691 203.342 35.5682C203.347 35.1048 203.251 34.6459 203.06 34.2235C202.867 33.8211 202.602 33.4567 202.28 33.1478C201.917 32.8065 201.515 32.5087 201.083 32.2602C200.603 31.9728 200.104 31.7168 199.591 31.4938C198.73 31.1038 197.883 30.7004 197.05 30.2566C196.24 29.8384 195.478 29.3335 194.777 28.7505C194.126 28.2292 193.567 27.6018 193.123 26.8948C192.699 26.1259 192.486 25.2583 192.505 24.3802C192.494 23.5137 192.688 22.6568 193.07 21.879C193.456 21.1285 194.002 20.472 194.67 19.9561C195.41 19.4015 196.243 18.9826 197.13 18.719C198.15 18.4117 199.211 18.262 200.277 18.2752C201.217 18.2681 202.155 18.3673 203.073 18.5711C203.823 18.7499 204.543 19.0352 205.211 19.4182C205.825 19.7785 206.378 20.2322 206.852 20.7629C207.339 21.3077 207.767 21.9027 208.129 22.538L204.351 23.8827C204.207 23.3122 203.966 22.7709 203.638 22.2825C203.399 21.9464 203.098 21.6589 202.751 21.4353C202.478 21.2577 202.171 21.1386 201.85 21.0857C201.59 21.0685 201.33 21.0685 201.07 21.0857C200.68 21.0859 200.291 21.1356 199.914 21.2336C199.596 21.2799 199.288 21.3752 198.999 21.516C198.733 21.6706 198.503 21.8817 198.327 22.1345C198.163 22.3861 198.079 22.6814 198.085 22.9817C198.087 23.3873 198.194 23.7856 198.394 24.1382C198.632 24.5252 198.932 24.8705 199.282 25.1601C199.702 25.4965 200.152 25.7936 200.626 26.0477C201.165 26.3466 201.722 26.6116 202.294 26.841C203.208 27.231 204.095 27.6479 204.983 28.1051C205.768 28.519 206.507 29.0148 207.188 29.5843C207.831 30.1293 208.376 30.7796 208.801 31.5072C209.211 32.2285 209.424 33.0445 209.42 33.8739C209.426 34.7695 209.266 35.6585 208.949 36.4961C208.636 37.3174 208.123 38.0477 207.457 38.6207C206.665 39.2721 205.751 39.7569 204.768 40.0461C203.458 40.4291 202.098 40.6104 200.734 40.584C199.578 40.6092 198.425 40.4504 197.319 40.1134C196.48 39.8675 195.686 39.4909 194.966 38.9973C194.351 38.5418 193.811 37.9928 193.365 37.3702C192.967 36.7936 192.599 36.1966 192.263 35.5817L195.987 34.1159Z" fill="#4D4D4D"/>
<defs>
<linearGradient id="paint0_linear" x1="48.2478" y1="5.93537" x2="13.9117" y2="39.369" gradientUnits="userSpaceOnUse">
<stop stop-color="#0065B1"/>
<stop offset="1" stop-color="#00AAEC"/>
</linearGradient>
</defs>
</svg>
