<svg width="22" height="22" viewBox="0 0 22 22" fill="none" xmlns="http://www.w3.org/2000/svg">
<path d="M10.3589 0.00320164C8.50981 0.0245168 4.53439 0.314678 2.31086 2.26261C0.656898 3.82755 0.079415 6.14127 0.0117299 9.00231C-0.0444343 11.853 -0.112119 17.2066 5.29189 18.6643V20.8845C5.29189 20.8845 5.25804 21.7728 5.87297 21.955C6.63047 22.184 7.06178 21.5005 7.78183 20.7662L9.12474 19.3161C12.8222 19.6097 15.6542 18.9331 15.9804 18.8327C16.7307 18.6037 20.9567 18.0881 21.6472 12.7338C22.3557 7.20428 21.3023 3.72029 19.4006 2.14434H19.3891C18.8152 1.63965 16.5089 0.0348305 11.3562 0.0169533C11.3562 0.0169533 10.9738 -0.00779971 10.3589 0.00251406V0.00320164ZM10.4223 1.55783C10.9472 1.55439 11.2662 1.57571 11.2662 1.57571C15.6275 1.58671 17.7092 2.84018 18.2003 3.26235C19.8017 4.57289 20.6269 7.71378 20.0228 12.3302C19.4489 16.8064 16.0214 17.0897 15.387 17.2829C15.117 17.3654 12.6228 17.9526 9.48044 17.7594C9.48044 17.7594 7.14027 20.4561 6.40869 21.1506C6.29276 21.2723 6.15739 21.308 6.07099 21.2901C5.94714 21.2613 5.90969 21.1148 5.91689 20.914L5.93922 17.2293C1.35607 16.0191 1.62609 11.4529 1.67506 9.06763C1.73122 6.6824 2.19997 4.73103 3.59544 3.4095C5.47406 1.78748 8.84968 1.56883 10.4208 1.55783H10.4223ZM10.7679 3.94238C10.7302 3.94201 10.6928 3.94878 10.6578 3.96229C10.6228 3.97581 10.591 3.99579 10.5642 4.02111C10.5373 4.04642 10.516 4.07655 10.5014 4.10977C10.4868 4.14299 10.4793 4.17864 10.4792 4.21466C10.4792 4.36868 10.6102 4.49038 10.7679 4.49038C11.4818 4.47742 12.1914 4.59955 12.8557 4.84973C13.5199 5.09991 14.1257 5.4732 14.6382 5.94806C15.6844 6.91824 16.1942 8.2219 16.2137 9.92643C16.2137 10.077 16.3411 10.2021 16.5024 10.2021V10.1911C16.5784 10.1913 16.6514 10.1628 16.7055 10.1118C16.7596 10.0608 16.7904 9.99145 16.7912 9.91886C16.8261 9.11655 16.6899 8.31584 16.3907 7.56537C16.0915 6.81491 15.6356 6.13038 15.0508 5.55339C13.9109 4.48969 12.4665 3.94169 10.7679 3.94169V3.94238ZM6.97249 4.57289C6.76868 4.54445 6.56082 4.58352 6.38349 4.68359H6.36837C5.95669 4.91403 5.58582 5.20528 5.26957 5.54651C5.00675 5.83667 4.86417 6.13027 4.82673 6.41287C4.80441 6.58133 4.81953 6.74978 4.8721 6.91068L4.89082 6.92168C5.18676 7.75228 5.57343 8.55126 6.04578 9.30347C6.65425 10.3603 7.40305 11.3376 8.27363 12.2113L8.29955 12.247L8.3406 12.2759L8.36652 12.3048L8.39676 12.3295C9.315 13.1633 10.341 13.8817 11.4498 14.4672C12.7171 15.1259 13.4861 15.4374 13.9477 15.5667V15.5736C14.083 15.6128 14.2062 15.6306 14.33 15.6306C14.7234 15.6031 15.0957 15.4506 15.3878 15.1975C15.7435 14.8954 16.0451 14.5398 16.2806 14.1448V14.1379C16.5017 13.7405 16.4268 13.3643 16.1078 13.1099C15.469 12.5767 14.7782 12.1031 14.0449 11.6956C13.5538 11.4412 13.0548 11.5952 12.8525 11.853L12.4211 12.3722C12.2001 12.63 11.7983 12.5943 11.7983 12.5943L11.7868 12.6011C8.79063 11.8702 7.99137 8.97343 7.99137 8.97343C7.99137 8.97343 7.95393 8.57945 8.23115 8.37867L8.77119 7.96337C9.02969 7.7626 9.2097 7.28679 8.93248 6.81717C8.50866 6.11594 8.01377 5.45613 7.45493 4.84724C7.33276 4.70369 7.16136 4.60602 6.97105 4.57152L6.97249 4.57289ZM11.2662 5.38974C10.8838 5.38974 10.8838 5.94118 11.2698 5.94118C11.7452 5.94855 12.2145 6.04531 12.6507 6.22594C13.087 6.40656 13.4817 6.66751 13.8123 6.99388C14.1139 7.31155 14.3456 7.68379 14.4938 8.08854C14.642 8.49329 14.7035 8.92233 14.6749 9.35023C14.6762 9.42265 14.7072 9.49169 14.7612 9.54258C14.8151 9.59347 14.8878 9.62216 14.9637 9.62251L14.9752 9.63695C15.0516 9.63641 15.1247 9.60719 15.1787 9.5556C15.2327 9.50401 15.2634 9.43419 15.2639 9.36123C15.2898 8.26866 14.9341 7.35211 14.2364 6.61777C13.5351 5.88343 12.5565 5.47156 11.3072 5.38974H11.2662V5.38974ZM11.7393 6.87217C11.3454 6.86117 11.3303 7.42362 11.7205 7.43462C12.6696 7.48137 13.1304 7.93931 13.1909 8.8813C13.1922 8.9528 13.2228 9.02097 13.2761 9.07122C13.3294 9.12147 13.4011 9.14979 13.476 9.15014H13.4875C13.526 9.14857 13.5638 9.13968 13.5987 9.12401C13.6336 9.10833 13.6648 9.08619 13.6906 9.05885C13.7164 9.03152 13.7363 8.99956 13.749 8.96482C13.7617 8.93009 13.7671 8.89328 13.7648 8.85654C13.6971 7.62852 12.9957 6.93681 11.7508 6.87286H11.7393V6.87217Z" fill="#665CAC"/>
</svg>
