<svg width="22" height="22" viewBox="0 0 22 22" fill="none" xmlns="http://www.w3.org/2000/svg">
<path fill-rule="evenodd" clip-rule="evenodd" d="M18.7945 3.06791C17.7798 2.09253 16.5724 1.31913 15.2424 0.792519C13.9124 0.265903 12.4862 -0.00346081 11.0463 3.35674e-05C5.00886 3.35674e-05 0.0939544 4.69215 0.091514 10.4597C0.091514 12.303 0.595451 14.102 1.5533 15.689L0 21.1082L5.80687 19.6529C7.41311 20.4878 9.21265 20.9256 11.0415 20.9264H11.0463C17.0826 20.9264 21.9975 16.2343 22 10.4667C22.0041 9.09238 21.723 7.73089 21.1728 6.46094C20.6226 5.19099 19.8143 4.03776 18.7945 3.06791V3.06791ZM11.0463 19.1612H11.0427C9.41193 19.1613 7.81118 18.7424 6.40842 17.9482L6.07653 17.7595L2.63072 18.6229L3.54952 15.4152L3.33355 15.0866C2.42181 13.7005 1.93916 12.0965 1.94132 10.4597C1.94376 5.66623 6.02772 1.76642 11.05 1.76642C12.2461 1.76389 13.4308 1.9879 14.5357 2.4255C15.6405 2.8631 16.6434 3.5056 17.4865 4.3158C18.3341 5.12215 19.0059 6.0809 19.4631 7.13666C19.9203 8.19242 20.1538 9.32424 20.1502 10.4667C20.1477 15.2602 16.0638 19.1612 11.0463 19.1612ZM16.0406 12.6491C15.766 12.5174 14.4214 11.8859 14.17 11.7985C13.9199 11.7111 13.7381 11.668 13.555 11.929C13.372 12.19 12.8473 12.7784 12.6875 12.9532C12.5277 13.1279 12.3678 13.1489 12.0945 13.0184C11.8212 12.8879 10.939 12.6118 9.89327 11.7216C9.0794 11.0283 8.53032 10.1731 8.37048 9.91092C8.21063 9.64876 8.35339 9.50778 8.49127 9.37728C8.61451 9.26076 8.7646 9.072 8.90126 8.91937C9.03792 8.76673 9.08307 8.65837 9.17458 8.4836C9.26609 8.30882 9.22095 8.15618 9.1514 8.02569C9.08307 7.89402 8.5352 6.60768 8.30703 6.08452C8.08617 5.57768 7.86044 5.64526 7.69205 5.63826C7.51766 5.63145 7.34313 5.62834 7.16859 5.62894C7.0298 5.63232 6.89324 5.66304 6.76747 5.71918C6.6417 5.77532 6.52943 5.85567 6.4377 5.95519C6.18634 6.21735 5.47986 6.84887 5.47986 8.13521C5.47986 9.42155 6.46088 10.6648 6.59755 10.8396C6.73421 11.0143 8.52788 13.6534 11.2733 14.786C11.9273 15.0551 12.4374 15.2159 12.8339 15.3371C13.4892 15.5363 14.0858 15.5072 14.558 15.4408C15.0839 15.3662 16.1772 14.8093 16.4054 14.1987C16.6336 13.5882 16.6336 13.065 16.5652 12.9555C16.4969 12.846 16.3127 12.7796 16.0406 12.6491" fill="#59AE6B"/>
</svg>
