<svg width="171" height="170" viewBox="0 0 171 170" fill="none" xmlns="http://www.w3.org/2000/svg">
<g opacity="0.2" clip-path="url(#clip0)">
<path d="M54.4387 134.143C55.5015 139.384 57.0265 144.566 58.9972 149.633L56.1079 150.939C54.0524 145.684 52.466 140.307 51.3662 134.868L54.4387 134.143Z" fill="#FF834F"/>
<path d="M52.5577 111.902C52.4017 117.315 52.7015 122.766 53.4544 128.204C52.4607 128.405 51.4526 128.578 50.4444 128.752C49.6599 123.104 49.3533 117.441 49.5277 111.819L52.5577 111.902Z" fill="#FF834F"/>
<path d="M55.9579 89.6873C54.4913 94.9523 53.4852 100.354 52.9493 105.841C51.9386 105.746 50.9349 105.632 49.9243 105.537C50.469 99.8428 51.5066 94.2367 53.0268 88.7738L55.9579 89.6873Z" fill="#FF834F"/>
<path d="M64.7237 68.7759C61.9086 73.5871 59.5594 78.6527 57.7022 83.9163L54.8335 82.826C56.7563 77.3929 59.1873 72.1647 62.0994 67.1998L64.7237 68.7759Z" fill="#FF834F"/>
<path d="M79.3261 50.5962C75.1368 54.541 71.3906 58.887 68.1389 63.5747L65.7036 61.6697C69.0637 56.8244 72.9347 52.332 77.2636 48.2542L79.3261 50.5962Z" fill="#FF834F"/>
<path d="M99.7389 36.3144C94.1886 39.1134 88.9972 42.4581 84.2433 46.2976L82.4133 43.71C87.3418 39.7251 92.7307 36.2608 98.4959 33.371L99.7389 36.3144Z" fill="#FF834F"/>
<path d="M112.36 29.9914C107.909 29.595 103.427 29.6247 98.9697 30.0801C99.6123 28.7174 100.499 27.4306 101.315 26.1092C105.902 25.8084 110.5 25.9268 115.056 26.4631C114.125 27.6159 113.229 28.786 112.36 29.9914Z" fill="#FF834F"/>
<path d="M111.686 26.124C108.813 30.1361 106.308 34.4155 104.204 38.9053C105.332 38.8713 106.478 38.8908 107.599 38.92C109.837 34.5449 112.464 30.3917 115.443 26.5148C114.19 26.3546 112.947 26.221 111.686 26.124Z" fill="#FF834F"/>
</g>
<defs>
<clipPath id="clip0">
<rect width="152.516" height="88.0778" fill="white" transform="translate(0 106.73) rotate(-44.4107)"/>
</clipPath>
</defs>
</svg>
